<?xml version="1.0" encoding="UTF-8" standalone="no"?>
<!DOCTYPE svg PUBLIC "-//W3C//DTD SVG 1.1//EN"
 "http://www.w3.org/Graphics/SVG/1.1/DTD/svg11.dtd">
<!-- Generated by graphviz version 12.2.1 (20241206.2353)
 -->
<!-- Title: PRISMA2020 Pages: 1 -->
<svg width="686pt" height="565pt"
 viewBox="0.00 0.00 685.60 564.50" xmlns="http://www.w3.org/2000/svg" xmlns:xlink="http://www.w3.org/1999/xlink">
<g id="graph0" class="graph" transform="scale(1 1) rotate(0) translate(4 560.5)">
<title>PRISMA2020</title>
<polygon fill="white" stroke="none" points="-4,4 -4,-560.5 681.6,-560.5 681.6,4 -4,4"/>
<text text-anchor="middle" x="338.8" y="-537.3" font-family="Helvetica,sans-Serif" font-weight="bold" font-size="16.00">PRISMA Flow Diagram (Draft 0.5)</text>
<!-- R1 -->
<g id="node1" class="node">
<title>R1</title>
<polygon fill="#fff8e1" stroke="#fbc02d" points="439.6,-532 238,-532 238,-445.6 439.6,-445.6 439.6,-532"/>
<text text-anchor="start" x="246" y="-507.42" font-family="Helvetica,sans-Serif" font-size="10.00">Records identified from:</text>
<text text-anchor="start" x="246" y="-496.17" font-family="Helvetica,sans-Serif" font-size="10.00">&#45; Dimensions (n = …)</text>
<text text-anchor="start" x="246" y="-484.92" font-family="Helvetica,sans-Serif" font-size="10.00">&#45; Europe PMC (n = …)</text>
<text text-anchor="start" x="246" y="-473.67" font-family="Helvetica,sans-Serif" font-size="10.00">&#45; A2T Website (n = …)</text>
<text text-anchor="start" x="246" y="-462.42" font-family="Helvetica,sans-Serif" font-size="10.00">&#45; Cordis Website (n = …)</text>
</g>
<!-- R2 -->
<g id="node2" class="node">
<title>R2</title>
<polygon fill="#e8f5e9" stroke="#2e7d32" points="439.6,-420.6 238,-420.6 238,-334.2 439.6,-334.2 439.6,-420.6"/>
<text text-anchor="middle" x="338.8" y="-379.15" font-family="Helvetica,sans-Serif" font-size="10.00" fill="#1b5e20">Records after duplicates removed</text>
<text text-anchor="middle" x="338.8" y="-367.9" font-family="Helvetica,sans-Serif" font-size="10.00" fill="#1b5e20">(n = …)</text>
</g>
<!-- R1&#45;&gt;R2 -->
<g id="edge1" class="edge">
<title>R1&#45;&gt;R2</title>
<path fill="none" stroke="#666666" d="M338.8,-445.19C338.8,-440.98 338.8,-436.68 338.8,-432.37"/>
<polygon fill="#666666" stroke="#666666" points="342.3,-432.59 338.8,-422.59 335.3,-432.59 342.3,-432.59"/>
</g>
<!-- X1 -->
<g id="node6" class="node">
<title>X1</title>
<polygon fill="#ffebee" stroke="#c62828" points="677.6,-532 476,-532 476,-445.6 677.6,-445.6 677.6,-532"/>
<text text-anchor="start" x="484" y="-484.92" font-family="Helvetica,sans-Serif" font-size="10.00" fill="#b71c1c">Duplicates removed (n = …)</text>
</g>
<!-- R1&#45;&gt;X1 -->
<g id="edge5" class="edge">
<title>R1:e&#45;&gt;X1:w</title>
<path fill="none" stroke="#666666" d="M439.6,-488.8C451.23,-488.8 456.59,-488.8 464.69,-488.8"/>
<polygon fill="#666666" stroke="#666666" points="464.49,-492.3 474.49,-488.8 464.49,-485.3 464.49,-492.3"/>
</g>
<!-- R3 -->
<g id="node3" class="node">
<title>R3</title>
<polygon fill="#e8f5e9" stroke="#2e7d32" points="439.6,-309.2 238,-309.2 238,-222.8 439.6,-222.8 439.6,-309.2"/>
<text text-anchor="middle" x="338.8" y="-267.75" font-family="Helvetica,sans-Serif" font-size="10.00" fill="#1b5e20">Full‑text reports assessed for eligibility</text>
<text text-anchor="middle" x="338.8" y="-256.5" font-family="Helvetica,sans-Serif" font-size="10.00" fill="#1b5e20">(n = …)</text>
</g>
<!-- R2&#45;&gt;R3 -->
<g id="edge2" class="edge">
<title>R2&#45;&gt;R3</title>
<path fill="none" stroke="#666666" d="M338.8,-333.79C338.8,-329.58 338.8,-325.28 338.8,-320.97"/>
<polygon fill="#666666" stroke="#666666" points="342.3,-321.19 338.8,-311.19 335.3,-321.19 342.3,-321.19"/>
</g>
<!-- X2 -->
<g id="node7" class="node">
<title>X2</title>
<polygon fill="#ffebee" stroke="#c62828" points="677.6,-420.6 476,-420.6 476,-334.2 677.6,-334.2 677.6,-420.6"/>
<text text-anchor="start" x="484" y="-379.15" font-family="Helvetica,sans-Serif" font-size="10.00" fill="#b71c1c">Excluded:</text>
<text text-anchor="start" x="484" y="-367.9" font-family="Helvetica,sans-Serif" font-size="10.00" fill="#b71c1c">&#45; No autism terms in title/abstract (n = …)</text>
</g>
<!-- R2&#45;&gt;X2 -->
<g id="edge6" class="edge">
<title>R2:e&#45;&gt;X2:w</title>
<path fill="none" stroke="#666666" d="M439.6,-377.4C451.23,-377.4 456.59,-377.4 464.69,-377.4"/>
<polygon fill="#666666" stroke="#666666" points="464.49,-380.9 474.49,-377.4 464.49,-373.9 464.49,-380.9"/>
</g>
<!-- R4 -->
<g id="node4" class="node">
<title>R4</title>
<polygon fill="#e8f5e9" stroke="#2e7d32" points="439.6,-197.8 238,-197.8 238,-111.4 439.6,-111.4 439.6,-197.8"/>
<text text-anchor="middle" x="338.8" y="-156.35" font-family="Helvetica,sans-Serif" font-size="10.00" fill="#1b5e20">Reports reviewed for funding attribution</text>
<text text-anchor="middle" x="338.8" y="-145.1" font-family="Helvetica,sans-Serif" font-size="10.00" fill="#1b5e20">(n = …)</text>
</g>
<!-- R3&#45;&gt;R4 -->
<g id="edge3" class="edge">
<title>R3&#45;&gt;R4</title>
<path fill="none" stroke="#666666" d="M338.8,-222.39C338.8,-218.18 338.8,-213.88 338.8,-209.57"/>
<polygon fill="#666666" stroke="#666666" points="342.3,-209.79 338.8,-199.79 335.3,-209.79 342.3,-209.79"/>
</g>
<!-- X3 -->
<g id="node8" class="node">
<title>X3</title>
<polygon fill="#ffebee" stroke="#c62828" points="677.6,-309.2 476,-309.2 476,-222.8 677.6,-222.8 677.6,-309.2"/>
<text text-anchor="start" x="484" y="-284.62" font-family="Helvetica,sans-Serif" font-size="10.00" fill="#b71c1c">Excluded:</text>
<text text-anchor="start" x="484" y="-273.38" font-family="Helvetica,sans-Serif" font-size="10.00" fill="#b71c1c">&#45; Duplicate preprint/published (n = …)</text>
<text text-anchor="start" x="484" y="-262.12" font-family="Helvetica,sans-Serif" font-size="10.00" fill="#b71c1c">&#45; Not autism‑related (n = …)</text>
<text text-anchor="start" x="484" y="-250.88" font-family="Helvetica,sans-Serif" font-size="10.00" fill="#b71c1c">&#45; Not English (n = …)</text>
<text text-anchor="start" x="484" y="-239.62" font-family="Helvetica,sans-Serif" font-size="10.00" fill="#b71c1c">&#45; Full text unavailable (n = …)</text>
</g>
<!-- R3&#45;&gt;X3 -->
<g id="edge7" class="edge">
<title>R3:e&#45;&gt;X3:w</title>
<path fill="none" stroke="#666666" d="M439.6,-266C451.23,-266 456.59,-266 464.69,-266"/>
<polygon fill="#666666" stroke="#666666" points="464.49,-269.5 474.49,-266 464.49,-262.5 464.49,-269.5"/>
</g>
<!-- R5 -->
<g id="node5" class="node">
<title>R5</title>
<polygon fill="#e8f5e9" stroke="#2e7d32" points="439.6,-86.4 238,-86.4 238,0 439.6,0 439.6,-86.4"/>
<text text-anchor="middle" x="338.8" y="-44.95" font-family="Helvetica,sans-Serif" font-size="10.00" fill="#1b5e20">Articles included in review</text>
<text text-anchor="middle" x="338.8" y="-33.7" font-family="Helvetica,sans-Serif" font-size="10.00" fill="#1b5e20">(n = …)</text>
</g>
<!-- R4&#45;&gt;R5 -->
<g id="edge4" class="edge">
<title>R4&#45;&gt;R5</title>
<path fill="none" stroke="#666666" d="M338.8,-110.99C338.8,-106.78 338.8,-102.48 338.8,-98.17"/>
<polygon fill="#666666" stroke="#666666" points="342.3,-98.39 338.8,-88.39 335.3,-98.39 342.3,-98.39"/>
</g>
<!-- X4 -->
<g id="node9" class="node">
<title>X4</title>
<polygon fill="#ffebee" stroke="#c62828" points="677.6,-197.8 476,-197.8 476,-111.4 677.6,-111.4 677.6,-197.8"/>
<text text-anchor="start" x="484" y="-167.6" font-family="Helvetica,sans-Serif" font-size="10.00" fill="#b71c1c">Excluded:</text>
<text text-anchor="start" x="484" y="-156.35" font-family="Helvetica,sans-Serif" font-size="10.00" fill="#b71c1c">&#45; A2T not mentioned (n = …)</text>
<text text-anchor="start" x="484" y="-145.1" font-family="Helvetica,sans-Serif" font-size="10.00" fill="#b71c1c">&#45; A2T mentioned only in text/refs (n = …)</text>
<text text-anchor="start" x="484" y="-133.85" font-family="Helvetica,sans-Serif" font-size="10.00" fill="#b71c1c">&#45; A2T funding unclear (n = …)</text>
</g>
<!-- R4&#45;&gt;X4 -->
<g id="edge8" class="edge">
<title>R4:e&#45;&gt;X4:w</title>
<path fill="none" stroke="#666666" d="M439.6,-154.6C451.23,-154.6 456.59,-154.6 464.69,-154.6"/>
<polygon fill="#666666" stroke="#666666" points="464.49,-158.1 474.49,-154.6 464.49,-151.1 464.49,-158.1"/>
</g>
<!-- L1 -->
<g id="node10" class="node">
<title>L1</title>
<path fill="#bbdefb" stroke="none" d="M189.6,-532C189.6,-532 12,-532 12,-532 6,-532 0,-526 0,-520 0,-520 0,-457.6 0,-457.6 0,-451.6 6,-445.6 12,-445.6 12,-445.6 189.6,-445.6 189.6,-445.6 195.6,-445.6 201.6,-451.6 201.6,-457.6 201.6,-457.6 201.6,-520 201.6,-520 201.6,-526 195.6,-532 189.6,-532"/>
<text text-anchor="middle" x="100.8" y="-483.77" font-family="Helvetica,sans-Serif" font-size="12.00" fill="#0d47a1">Identification</text>
</g>
<!-- L1&#45;&gt;R1 -->
<!-- L2 -->
<g id="node11" class="node">
<title>L2</title>
<path fill="#bbdefb" stroke="none" d="M189.6,-420.6C189.6,-420.6 12,-420.6 12,-420.6 6,-420.6 0,-414.6 0,-408.6 0,-408.6 0,-346.2 0,-346.2 0,-340.2 6,-334.2 12,-334.2 12,-334.2 189.6,-334.2 189.6,-334.2 195.6,-334.2 201.6,-340.2 201.6,-346.2 201.6,-346.2 201.6,-408.6 201.6,-408.6 201.6,-414.6 195.6,-420.6 189.6,-420.6"/>
<text text-anchor="middle" x="100.8" y="-372.38" font-family="Helvetica,sans-Serif" font-size="12.00" fill="#0d47a1">Screening</text>
</g>
<!-- L2&#45;&gt;R2 -->
<!-- L3 -->
<g id="node12" class="node">
<title>L3</title>
<path fill="#bbdefb" stroke="none" d="M189.6,-197.8C189.6,-197.8 12,-197.8 12,-197.8 6,-197.8 0,-191.8 0,-185.8 0,-185.8 0,-123.4 0,-123.4 0,-117.4 6,-111.4 12,-111.4 12,-111.4 189.6,-111.4 189.6,-111.4 195.6,-111.4 201.6,-117.4 201.6,-123.4 201.6,-123.4 201.6,-185.8 201.6,-185.8 201.6,-191.8 195.6,-197.8 189.6,-197.8"/>
<text text-anchor="middle" x="100.8" y="-149.57" font-family="Helvetica,sans-Serif" font-size="12.00" fill="#0d47a1">Eligibility</text>
</g>
<!-- L3&#45;&gt;R4 -->
<!-- L4 -->
<g id="node13" class="node">
<title>L4</title>
<path fill="#bbdefb" stroke="none" d="M189.6,-86.4C189.6,-86.4 12,-86.4 12,-86.4 6,-86.4 0,-80.4 0,-74.4 0,-74.4 0,-12 0,-12 0,-6 6,0 12,0 12,0 189.6,0 189.6,0 195.6,0 201.6,-6 201.6,-12 201.6,-12 201.6,-74.4 201.6,-74.4 201.6,-80.4 195.6,-86.4 189.6,-86.4"/>
<text text-anchor="middle" x="100.8" y="-38.17" font-family="Helvetica,sans-Serif" font-size="12.00" fill="#0d47a1">Included</text>
</g>
<!-- L4&#45;&gt;R5 -->
</g>
</svg>
