<?xml version="1.0" encoding="UTF-8" standalone="no"?>
<!DOCTYPE svg PUBLIC "-//W3C//DTD SVG 1.1//EN"
 "http://www.w3.org/Graphics/SVG/1.1/DTD/svg11.dtd">
<!-- Generated by graphviz version 12.2.1 (20241206.2353)
 -->
<!-- Title: PRISMA2020 Pages: 1 -->
<svg width="516pt" height="336pt"
 viewBox="0.00 0.00 516.38 336.25" xmlns="http://www.w3.org/2000/svg" xmlns:xlink="http://www.w3.org/1999/xlink">
<g id="graph0" class="graph" transform="scale(1 1) rotate(0) translate(4 332.25)">
<title>PRISMA2020</title>
<polygon fill="white" stroke="none" points="-4,4 -4,-332.25 512.38,-332.25 512.38,4 -4,4"/>
<text text-anchor="middle" x="254.19" y="-309.05" font-family="Helvetica,sans-Serif" font-weight="bold" font-size="16.00">PRISMA Flow Diagram (Draft 0.3)</text>
<!-- R1 -->
<g id="node1" class="node">
<title>R1</title>
<polygon fill="#fff8e1" stroke="#fbc02d" points="324,-303.75 180,-303.75 180,-239.5 324,-239.5 324,-303.75"/>
<text text-anchor="start" x="188" y="-290.25" font-family="Helvetica,sans-Serif" font-size="10.00">Records identified from:</text>
<text text-anchor="start" x="188" y="-279" font-family="Helvetica,sans-Serif" font-size="10.00">&#45; Dimensions (n = …)</text>
<text text-anchor="start" x="188" y="-267.75" font-family="Helvetica,sans-Serif" font-size="10.00">&#45; Europe PMC (n = …)</text>
<text text-anchor="start" x="188" y="-256.5" font-family="Helvetica,sans-Serif" font-size="10.00">&#45; A2T Website (n = …)</text>
<text text-anchor="start" x="188" y="-245.25" font-family="Helvetica,sans-Serif" font-size="10.00">&#45; Cordis Website (n = …)</text>
</g>
<!-- R2 -->
<g id="node2" class="node">
<title>R2</title>
<polygon fill="#e8f5e9" stroke="#2e7d32" points="324,-194.75 180,-194.75 180,-158.75 324,-158.75 324,-194.75"/>
<text text-anchor="middle" x="252" y="-178.5" font-family="Helvetica,sans-Serif" font-size="10.00" fill="#1b5e20">Records screened</text>
<text text-anchor="middle" x="252" y="-167.25" font-family="Helvetica,sans-Serif" font-size="10.00" fill="#1b5e20">(n = …)</text>
</g>
<!-- R1&#45;&gt;R2 -->
<g id="edge3" class="edge">
<title>R1&#45;&gt;R2</title>
<path fill="none" stroke="#666666" d="M252,-239.18C252,-228.59 252,-216.83 252,-206.47"/>
<polygon fill="#666666" stroke="#666666" points="255.5,-206.6 252,-196.6 248.5,-206.6 255.5,-206.6"/>
</g>
<!-- Dup -->
<g id="node5" class="node">
<title>Dup</title>
<polygon fill="#ffebee" stroke="#c62828" points="504,-289.62 360,-289.62 360,-253.62 504,-253.62 504,-289.62"/>
<text text-anchor="middle" x="432" y="-273.38" font-family="Helvetica,sans-Serif" font-size="10.00" fill="#b71c1c">Duplicates removed</text>
<text text-anchor="middle" x="432" y="-262.12" font-family="Helvetica,sans-Serif" font-size="10.00" fill="#b71c1c">(n = …)</text>
</g>
<!-- R1&#45;&gt;Dup -->
<g id="edge6" class="edge">
<title>R1:e&#45;&gt;Dup:w</title>
<path fill="none" stroke="#666666" d="M324,-271.62C335.38,-271.62 340.68,-271.62 348.55,-271.62"/>
<polygon fill="#666666" stroke="#666666" points="348.49,-275.13 358.49,-271.63 348.49,-268.13 348.49,-275.13"/>
</g>
<!-- R3 -->
<g id="node3" class="node">
<title>R3</title>
<polygon fill="#e8f5e9" stroke="#2e7d32" points="324,-105.5 180,-105.5 180,-69.5 324,-69.5 324,-105.5"/>
<text text-anchor="middle" x="252" y="-89.25" font-family="Helvetica,sans-Serif" font-size="10.00" fill="#1b5e20">Eligibility review</text>
<text text-anchor="middle" x="252" y="-78" font-family="Helvetica,sans-Serif" font-size="10.00" fill="#1b5e20">(n = …)</text>
</g>
<!-- R2&#45;&gt;R3 -->
<g id="edge4" class="edge">
<title>R2&#45;&gt;R3</title>
<path fill="none" stroke="#666666" d="M252,-158.51C252,-146.68 252,-130.7 252,-117"/>
<polygon fill="#666666" stroke="#666666" points="255.5,-117.22 252,-107.22 248.5,-117.22 255.5,-117.22"/>
</g>
<!-- Xscr -->
<g id="node6" class="node">
<title>Xscr</title>
<polygon fill="#ffebee" stroke="#c62828" points="504,-214.5 360,-214.5 360,-139 504,-139 504,-214.5"/>
<text text-anchor="start" x="368" y="-201" font-family="Helvetica,sans-Serif" font-size="10.00" fill="#b71c1c">Excluded:</text>
<text text-anchor="start" x="368" y="-189.75" font-family="Helvetica,sans-Serif" font-size="10.00" fill="#b71c1c">&#45; No autism terms (n = …)</text>
<text text-anchor="start" x="368" y="-178.5" font-family="Helvetica,sans-Serif" font-size="10.00" fill="#b71c1c">&#45; Duplicate preprint (n = …)</text>
<text text-anchor="start" x="368" y="-167.25" font-family="Helvetica,sans-Serif" font-size="10.00" fill="#b71c1c">&#45; Not English (n = …)</text>
<text text-anchor="start" x="368" y="-156" font-family="Helvetica,sans-Serif" font-size="10.00" fill="#b71c1c">&#45; Not autism&#45;related (n = …)</text>
<text text-anchor="middle" x="432" y="-144.75" font-family="Helvetica,sans-Serif" font-size="10.00" fill="#b71c1c">(n = …)</text>
</g>
<!-- R2&#45;&gt;Xscr -->
<g id="edge7" class="edge">
<title>R2:e&#45;&gt;Xscr:w</title>
<path fill="none" stroke="#666666" d="M324,-176.75C335.38,-176.75 340.68,-176.75 348.55,-176.75"/>
<polygon fill="#666666" stroke="#666666" points="348.49,-180.25 358.49,-176.75 348.49,-173.25 348.49,-180.25"/>
</g>
<!-- R4 -->
<g id="node4" class="node">
<title>R4</title>
<polygon fill="#e8f5e9" stroke="#2e7d32" points="324,-36 180,-36 180,0 324,0 324,-36"/>
<text text-anchor="middle" x="252" y="-19.75" font-family="Helvetica,sans-Serif" font-size="10.00" fill="#1b5e20">Articles included in review</text>
<text text-anchor="middle" x="252" y="-8.5" font-family="Helvetica,sans-Serif" font-size="10.00" fill="#1b5e20">(n = …)</text>
</g>
<!-- R3&#45;&gt;R4 -->
<g id="edge5" class="edge">
<title>R3&#45;&gt;R4</title>
<path fill="none" stroke="#666666" d="M252,-69.12C252,-62.53 252,-54.85 252,-47.51"/>
<polygon fill="#666666" stroke="#666666" points="255.5,-47.6 252,-37.6 248.5,-47.6 255.5,-47.6"/>
</g>
<!-- Xelig -->
<g id="node7" class="node">
<title>Xelig</title>
<polygon fill="#ffebee" stroke="#c62828" points="508.38,-114 359.62,-114 359.62,-61 508.38,-61 508.38,-114"/>
<text text-anchor="start" x="367.62" y="-100.5" font-family="Helvetica,sans-Serif" font-size="10.00" fill="#b71c1c">Excluded:</text>
<text text-anchor="start" x="367.62" y="-89.25" font-family="Helvetica,sans-Serif" font-size="10.00" fill="#b71c1c">&#45; A2T only in text/refs &#160;(n = …)</text>
<text text-anchor="start" x="367.62" y="-78" font-family="Helvetica,sans-Serif" font-size="10.00" fill="#b71c1c">&#45; A2T funding unclear (n = …)</text>
<text text-anchor="middle" x="434" y="-66.75" font-family="Helvetica,sans-Serif" font-size="10.00" fill="#b71c1c">(n = …)</text>
</g>
<!-- R3&#45;&gt;Xelig -->
<g id="edge8" class="edge">
<title>R3:e&#45;&gt;Xelig:w</title>
<path fill="none" stroke="#666666" d="M324,-87.5C335.26,-87.5 340.51,-87.5 348.3,-87.5"/>
<polygon fill="#666666" stroke="#666666" points="348.11,-91 358.11,-87.5 348.11,-84 348.11,-91"/>
</g>
<!-- L1 -->
<g id="node8" class="node">
<title>L1</title>
<path fill="#bbdefb" stroke="none" d="M132,-289.62C132,-289.62 12,-289.62 12,-289.62 6,-289.62 0,-283.62 0,-277.62 0,-277.62 0,-265.62 0,-265.62 0,-259.62 6,-253.62 12,-253.62 12,-253.62 132,-253.62 132,-253.62 138,-253.62 144,-259.62 144,-265.62 144,-265.62 144,-277.62 144,-277.62 144,-283.62 138,-289.62 132,-289.62"/>
<text text-anchor="middle" x="72" y="-266.6" font-family="Helvetica,sans-Serif" font-size="12.00" fill="#0d47a1">Identification</text>
</g>
<!-- L1&#45;&gt;R1 -->
<!-- L2 -->
<g id="node9" class="node">
<title>L2</title>
<path fill="#bbdefb" stroke="none" d="M132,-194.75C132,-194.75 12,-194.75 12,-194.75 6,-194.75 0,-188.75 0,-182.75 0,-182.75 0,-170.75 0,-170.75 0,-164.75 6,-158.75 12,-158.75 12,-158.75 132,-158.75 132,-158.75 138,-158.75 144,-164.75 144,-170.75 144,-170.75 144,-182.75 144,-182.75 144,-188.75 138,-194.75 132,-194.75"/>
<text text-anchor="middle" x="72" y="-171.72" font-family="Helvetica,sans-Serif" font-size="12.00" fill="#0d47a1">Screening</text>
</g>
<!-- L1&#45;&gt;L2 -->
<g id="edge1" class="edge">
<title>L1&#45;&gt;L2</title>
<path fill="none" stroke="#666666" d="M72,-254.02C72,-240.63 72,-221.51 72,-205.76"/>
<polygon fill="#666666" stroke="#666666" points="75.5,-206.04 72,-196.04 68.5,-206.04 75.5,-206.04"/>
</g>
<!-- L2&#45;&gt;R2 -->
<!-- L3 -->
<g id="node10" class="node">
<title>L3</title>
<path fill="#bbdefb" stroke="none" d="M132,-36C132,-36 12,-36 12,-36 6,-36 0,-30 0,-24 0,-24 0,-12 0,-12 0,-6 6,0 12,0 12,0 132,0 132,0 138,0 144,-6 144,-12 144,-12 144,-24 144,-24 144,-30 138,-36 132,-36"/>
<text text-anchor="middle" x="72" y="-12.97" font-family="Helvetica,sans-Serif" font-size="12.00" fill="#0d47a1">Included</text>
</g>
<!-- L2&#45;&gt;L3 -->
<g id="edge2" class="edge">
<title>L2&#45;&gt;L3</title>
<path fill="none" stroke="#666666" d="M72,-158.98C72,-132.22 72,-79.6 72,-47.05"/>
<polygon fill="#666666" stroke="#666666" points="75.5,-47.17 72,-37.17 68.5,-47.17 75.5,-47.17"/>
</g>
<!-- L3&#45;&gt;R4 -->
</g>
</svg>
