<?xml version="1.0" encoding="UTF-8" standalone="no"?>
<!DOCTYPE svg PUBLIC "-//W3C//DTD SVG 1.1//EN"
 "http://www.w3.org/Graphics/SVG/1.1/DTD/svg11.dtd">
<!-- Generated by graphviz version 12.2.1 (20241206.2353)
 -->
<!-- Title: PRISMA Pages: 1 -->
<svg width="885pt" height="546pt"
 viewBox="0.00 0.00 885.00 546.00" xmlns="http://www.w3.org/2000/svg" xmlns:xlink="http://www.w3.org/1999/xlink">
<g id="graph0" class="graph" transform="scale(1 1) rotate(0) translate(4 542)">
<title>PRISMA</title>
<polygon fill="white" stroke="none" points="-4,4 -4,-542 881,-542 881,4 -4,4"/>
<text text-anchor="middle" x="438.5" y="-518.8" font-family="Helvetica,sans-Serif" font-weight="bold" font-size="16.00">PRISMA Flow Diagram (Draft 0.1)</text>
<!-- A1 -->
<g id="node1" class="node">
<title>A1</title>
<polygon fill="#fff8e1" stroke="#fbc02d" points="144,-513.5 0,-513.5 0,-471 144,-471 144,-513.5"/>
<text text-anchor="middle" x="72" y="-500" font-family="Helvetica,sans-Serif" font-size="10.00">Dimensions search</text>
<text text-anchor="middle" x="72" y="-476.75" font-family="Helvetica,sans-Serif" font-size="10.00">(n=…)</text>
</g>
<!-- B1 -->
<g id="node9" class="node">
<title>B1</title>
<polygon fill="#ffebee" stroke="#c62828" points="306,-513.12 162,-513.12 162,-471.38 306,-471.38 306,-513.12"/>
<text text-anchor="middle" x="234" y="-499.62" font-family="Helvetica,sans-Serif" font-size="10.00">Excluded: no autism terms</text>
<text text-anchor="middle" x="234" y="-488.38" font-family="Helvetica,sans-Serif" font-size="10.00">(title/abstract)</text>
<text text-anchor="middle" x="234" y="-477.12" font-family="Helvetica,sans-Serif" font-size="10.00">(n=…)</text>
</g>
<!-- A1&#45;&gt;B1 -->
<g id="edge6" class="edge">
<title>A1&#45;&gt;B1</title>
<path fill="none" stroke="#666666" d="M144.46,-492.25C146.42,-492.25 148.38,-492.25 150.35,-492.25"/>
<polygon fill="#666666" stroke="#666666" points="150.08,-495.75 160.08,-492.25 150.08,-488.75 150.08,-495.75"/>
</g>
<!-- B6 -->
<g id="node2" class="node">
<title>B6</title>
<polygon fill="#e8f5e9" stroke="#2e7d32" points="468,-199.5 324,-199.5 324,-157 468,-157 468,-199.5"/>
<text text-anchor="middle" x="396" y="-186" font-family="Helvetica,sans-Serif" font-size="10.00" fill="#1b5e20">After full&#45;text exclusions</text>
<text text-anchor="middle" x="396" y="-162.75" font-family="Helvetica,sans-Serif" font-size="10.00" fill="#1b5e20">(n=…)</text>
</g>
<!-- C5 -->
<g id="node7" class="node">
<title>C5</title>
<polygon fill="#e8f5e9" stroke="#2e7d32" points="552,-121 408,-121 408,-78.5 552,-78.5 552,-121"/>
<text text-anchor="middle" x="480" y="-107.5" font-family="Helvetica,sans-Serif" font-size="10.00">Merged dataset</text>
<text text-anchor="middle" x="480" y="-84.25" font-family="Helvetica,sans-Serif" font-size="10.00">(n=…)</text>
</g>
<!-- B6&#45;&gt;C5 -->
<g id="edge8" class="edge">
<title>B6&#45;&gt;C5</title>
<path fill="none" stroke="#666666" d="M418.51,-156.75C427.93,-148.17 439.02,-138.07 449.18,-128.82"/>
<polygon fill="#666666" stroke="#666666" points="451.27,-131.65 456.31,-122.33 446.56,-126.47 451.27,-131.65"/>
</g>
<!-- C1 -->
<g id="node3" class="node">
<title>C1</title>
<polygon fill="#fff8e1" stroke="#fbc02d" points="474,-278 330,-278 330,-235.5 474,-235.5 474,-278"/>
<text text-anchor="middle" x="402" y="-264.5" font-family="Helvetica,sans-Serif" font-size="10.00">Europe PMC search</text>
<text text-anchor="middle" x="402" y="-241.25" font-family="Helvetica,sans-Serif" font-size="10.00">(n=…)</text>
</g>
<!-- C4 -->
<g id="node6" class="node">
<title>C4</title>
<polygon fill="#ffebee" stroke="#c62828" points="641.75,-199.5 486.25,-199.5 486.25,-157 641.75,-157 641.75,-199.5"/>
<text text-anchor="middle" x="564" y="-186" font-family="Helvetica,sans-Serif" font-size="10.00">Excluded: duplicates / irrelevant</text>
<text text-anchor="middle" x="564" y="-162.75" font-family="Helvetica,sans-Serif" font-size="10.00">(n=…)</text>
</g>
<!-- C1&#45;&gt;C4 -->
<g id="edge9" class="edge">
<title>C1&#45;&gt;C4</title>
<path fill="none" stroke="#666666" d="M445.84,-235.05C465.56,-225.74 489.03,-214.65 509.84,-204.83"/>
<polygon fill="#666666" stroke="#666666" points="511.21,-208.05 518.76,-200.61 508.22,-201.72 511.21,-208.05"/>
</g>
<!-- C2 -->
<g id="node4" class="node">
<title>C2</title>
<polygon fill="#fff8e1" stroke="#fbc02d" points="636,-278 492,-278 492,-235.5 636,-235.5 636,-278"/>
<text text-anchor="middle" x="564" y="-264.5" font-family="Helvetica,sans-Serif" font-size="10.00">CORDIS records</text>
<text text-anchor="middle" x="564" y="-241.25" font-family="Helvetica,sans-Serif" font-size="10.00">(n=…)</text>
</g>
<!-- C2&#45;&gt;C4 -->
<g id="edge10" class="edge">
<title>C2&#45;&gt;C4</title>
<path fill="none" stroke="#666666" d="M564,-235.25C564,-227.87 564,-219.37 564,-211.25"/>
<polygon fill="#666666" stroke="#666666" points="567.5,-211.32 564,-201.32 560.5,-211.32 567.5,-211.32"/>
</g>
<!-- C3 -->
<g id="node5" class="node">
<title>C3</title>
<polygon fill="#fff8e1" stroke="#fbc02d" points="798,-278 654,-278 654,-235.5 798,-235.5 798,-278"/>
<text text-anchor="middle" x="726" y="-264.5" font-family="Helvetica,sans-Serif" font-size="10.00">Project website records</text>
<text text-anchor="middle" x="726" y="-241.25" font-family="Helvetica,sans-Serif" font-size="10.00">(n=…)</text>
</g>
<!-- C3&#45;&gt;C4 -->
<g id="edge11" class="edge">
<title>C3&#45;&gt;C4</title>
<path fill="none" stroke="#666666" d="M682.16,-235.05C662.44,-225.74 638.97,-214.65 618.16,-204.83"/>
<polygon fill="#666666" stroke="#666666" points="619.78,-201.72 609.24,-200.61 616.79,-208.05 619.78,-201.72"/>
</g>
<!-- C4&#45;&gt;C5 -->
<g id="edge12" class="edge">
<title>C4&#45;&gt;C5</title>
<path fill="none" stroke="#666666" d="M541.49,-156.75C532.07,-148.17 520.98,-138.07 510.82,-128.82"/>
<polygon fill="#666666" stroke="#666666" points="513.44,-126.47 503.69,-122.33 508.73,-131.65 513.44,-126.47"/>
</g>
<!-- D1 -->
<g id="node14" class="node">
<title>D1</title>
<polygon fill="#ffebee" stroke="#c62828" points="714,-121 570,-121 570,-78.5 714,-78.5 714,-121"/>
<text text-anchor="middle" x="642" y="-107.5" font-family="Helvetica,sans-Serif" font-size="10.00">Excluded: not funded by A2T</text>
<text text-anchor="middle" x="642" y="-84.25" font-family="Helvetica,sans-Serif" font-size="10.00">(n=…)</text>
</g>
<!-- C5&#45;&gt;D1 -->
<g id="edge13" class="edge">
<title>C5&#45;&gt;D1</title>
<path fill="none" stroke="#666666" d="M552.46,-99.75C554.42,-99.75 556.38,-99.75 558.35,-99.75"/>
<polygon fill="#666666" stroke="#666666" points="558.08,-103.25 568.08,-99.75 558.08,-96.25 558.08,-103.25"/>
</g>
<!-- D3 -->
<g id="node8" class="node">
<title>D3</title>
<polygon fill="#e8f5e9" stroke="#2e7d32" points="877,-42.5 733,-42.5 733,0 877,0 877,-42.5"/>
<text text-anchor="middle" x="805" y="-29" font-family="Helvetica,sans-Serif" font-size="10.00">Final included corpus</text>
<text text-anchor="middle" x="805" y="-5.75" font-family="Helvetica,sans-Serif" font-size="10.00">(n=…)</text>
</g>
<!-- B2 -->
<g id="node10" class="node">
<title>B2</title>
<polygon fill="#ffebee" stroke="#c62828" points="306,-435 162,-435 162,-392.5 306,-392.5 306,-435"/>
<text text-anchor="middle" x="234" y="-421.5" font-family="Helvetica,sans-Serif" font-size="10.00">Excluded: not autism&#45;related</text>
<text text-anchor="middle" x="234" y="-398.25" font-family="Helvetica,sans-Serif" font-size="10.00">(n=…)</text>
</g>
<!-- B1&#45;&gt;B2 -->
<g id="edge1" class="edge">
<title>B1&#45;&gt;B2</title>
<path fill="none" stroke="#666666" d="M234,-471.15C234,-463.63 234,-454.89 234,-446.56"/>
<polygon fill="#666666" stroke="#666666" points="237.5,-446.76 234,-436.76 230.5,-446.76 237.5,-446.76"/>
</g>
<!-- B3 -->
<g id="node11" class="node">
<title>B3</title>
<polygon fill="#ffebee" stroke="#c62828" points="306,-356.5 162,-356.5 162,-314 306,-314 306,-356.5"/>
<text text-anchor="middle" x="234" y="-343" font-family="Helvetica,sans-Serif" font-size="10.00">Excluded: not English</text>
<text text-anchor="middle" x="234" y="-319.75" font-family="Helvetica,sans-Serif" font-size="10.00">(n=…)</text>
</g>
<!-- B2&#45;&gt;B3 -->
<g id="edge2" class="edge">
<title>B2&#45;&gt;B3</title>
<path fill="none" stroke="#666666" d="M234,-392.25C234,-384.87 234,-376.37 234,-368.25"/>
<polygon fill="#666666" stroke="#666666" points="237.5,-368.32 234,-358.32 230.5,-368.32 237.5,-368.32"/>
</g>
<!-- B4 -->
<g id="node12" class="node">
<title>B4</title>
<polygon fill="#ffebee" stroke="#c62828" points="306,-278 162,-278 162,-235.5 306,-235.5 306,-278"/>
<text text-anchor="middle" x="234" y="-264.5" font-family="Helvetica,sans-Serif" font-size="10.00">Excluded: duplicate preprint</text>
<text text-anchor="middle" x="234" y="-241.25" font-family="Helvetica,sans-Serif" font-size="10.00">(n=…)</text>
</g>
<!-- B3&#45;&gt;B4 -->
<g id="edge3" class="edge">
<title>B3&#45;&gt;B4</title>
<path fill="none" stroke="#666666" d="M234,-313.75C234,-306.37 234,-297.87 234,-289.75"/>
<polygon fill="#666666" stroke="#666666" points="237.5,-289.82 234,-279.82 230.5,-289.82 237.5,-289.82"/>
</g>
<!-- B5 -->
<g id="node13" class="node">
<title>B5</title>
<polygon fill="#ffebee" stroke="#c62828" points="306,-199.12 162,-199.12 162,-157.38 306,-157.38 306,-199.12"/>
<text text-anchor="middle" x="234" y="-185.62" font-family="Helvetica,sans-Serif" font-size="10.00">Excluded: no acknowledge/</text>
<text text-anchor="middle" x="234" y="-174.38" font-family="Helvetica,sans-Serif" font-size="10.00">funding section</text>
<text text-anchor="middle" x="234" y="-163.12" font-family="Helvetica,sans-Serif" font-size="10.00">(n=…)</text>
</g>
<!-- B4&#45;&gt;B5 -->
<g id="edge4" class="edge">
<title>B4&#45;&gt;B5</title>
<path fill="none" stroke="#666666" d="M234,-235.25C234,-227.82 234,-219.23 234,-211.05"/>
<polygon fill="#666666" stroke="#666666" points="237.5,-211.06 234,-201.06 230.5,-211.06 237.5,-211.06"/>
</g>
<!-- B5&#45;&gt;B6 -->
<g id="edge7" class="edge">
<title>B5&#45;&gt;B6</title>
<path fill="none" stroke="#666666" d="M306.46,-178.25C308.42,-178.25 310.38,-178.25 312.35,-178.25"/>
<polygon fill="#666666" stroke="#666666" points="312.08,-181.75 322.08,-178.25 312.08,-174.75 312.08,-181.75"/>
</g>
<!-- D2 -->
<g id="node15" class="node">
<title>D2</title>
<polygon fill="#ffebee" stroke="#c62828" points="714.5,-42.5 569.5,-42.5 569.5,0 714.5,0 714.5,-42.5"/>
<text text-anchor="middle" x="642" y="-29" font-family="Helvetica,sans-Serif" font-size="10.00">Excluded: ambiguous support</text>
<text text-anchor="middle" x="642" y="-5.75" font-family="Helvetica,sans-Serif" font-size="10.00">(n=…)</text>
</g>
<!-- D1&#45;&gt;D2 -->
<g id="edge5" class="edge">
<title>D1&#45;&gt;D2</title>
<path fill="none" stroke="#666666" d="M642,-78.25C642,-70.87 642,-62.37 642,-54.25"/>
<polygon fill="#666666" stroke="#666666" points="645.5,-54.32 642,-44.32 638.5,-54.32 645.5,-54.32"/>
</g>
<!-- D2&#45;&gt;D3 -->
<g id="edge14" class="edge">
<title>D2&#45;&gt;D3</title>
<path fill="none" stroke="#666666" d="M714.9,-21.25C717.01,-21.25 719.12,-21.25 721.23,-21.25"/>
<polygon fill="#666666" stroke="#666666" points="720.99,-24.75 730.99,-21.25 720.99,-17.75 720.99,-24.75"/>
</g>
</g>
</svg>
