<?xml version="1.0" encoding="UTF-8" standalone="no"?>
<!DOCTYPE svg PUBLIC "-//W3C//DTD SVG 1.1//EN"
 "http://www.w3.org/Graphics/SVG/1.1/DTD/svg11.dtd">
<!-- Generated by graphviz version 12.2.1 (20241206.2353)
 -->
<!-- Title: PRISMA Pages: 1 -->
<svg width="670pt" height="573pt"
 viewBox="0.00 0.00 670.00 572.50" xmlns="http://www.w3.org/2000/svg" xmlns:xlink="http://www.w3.org/1999/xlink">
<g id="graph0" class="graph" transform="scale(1 1) rotate(0) translate(4 568.5)">
<title>PRISMA</title>
<polygon fill="white" stroke="none" points="-4,4 -4,-568.5 666,-568.5 666,4 -4,4"/>
<text text-anchor="middle" x="331" y="-545.3" font-family="Helvetica,sans-Serif" font-weight="bold" font-size="16.00">PRISMA Flow Diagram (Draft 0.3)</text>
<g id="clust1" class="cluster">
<title>cluster_sources</title>
<polygon fill="none" stroke="black" points="8,-480 8,-532 654,-532 654,-480 8,-480"/>
</g>
<!-- S1 -->
<g id="node1" class="node">
<title>S1</title>
<polygon fill="#fff8e1" stroke="#fbc02d" points="160,-524 16,-524 16,-488 160,-488 160,-524"/>
<text text-anchor="middle" x="88" y="-507.75" font-family="Helvetica,sans-Serif" font-size="10.00">Dimensions search</text>
<text text-anchor="middle" x="88" y="-496.5" font-family="Helvetica,sans-Serif" font-size="10.00">(n=…)</text>
</g>
<!-- D1 -->
<g id="node5" class="node">
<title>D1</title>
<polygon fill="#e8f5e9" stroke="#2e7d32" points="403,-463 259,-463 259,-427 403,-427 403,-463"/>
<text text-anchor="middle" x="331" y="-446.75" font-family="Helvetica,sans-Serif" font-size="10.00" fill="#1b5e20">Dataset 1: distinct records</text>
<text text-anchor="middle" x="331" y="-435.5" font-family="Helvetica,sans-Serif" font-size="10.00" fill="#1b5e20">(n=…)</text>
</g>
<!-- S1&#45;&gt;D1 -->
<g id="edge1" class="edge">
<title>S1&#45;&gt;D1</title>
<path fill="none" stroke="#666666" d="M141.83,-487.63C150.86,-484.93 160.17,-482.29 169,-480 194.45,-473.42 222.39,-467.2 247.8,-461.92"/>
<polygon fill="#666666" stroke="#666666" points="248.32,-465.39 257.41,-459.95 246.91,-458.53 248.32,-465.39"/>
</g>
<!-- S2 -->
<g id="node2" class="node">
<title>S2</title>
<polygon fill="#fff8e1" stroke="#fbc02d" points="322,-524 178,-524 178,-488 322,-488 322,-524"/>
<text text-anchor="middle" x="250" y="-507.75" font-family="Helvetica,sans-Serif" font-size="10.00">Europe PMC search</text>
<text text-anchor="middle" x="250" y="-496.5" font-family="Helvetica,sans-Serif" font-size="10.00">(n=…)</text>
</g>
<!-- S2&#45;&gt;D1 -->
<g id="edge2" class="edge">
<title>S2&#45;&gt;D1</title>
<path fill="none" stroke="#666666" d="M273.86,-487.62C281.38,-482.14 289.82,-476 297.85,-470.14"/>
<polygon fill="#666666" stroke="#666666" points="299.78,-473.07 305.8,-464.35 295.66,-467.41 299.78,-473.07"/>
</g>
<!-- S3 -->
<g id="node3" class="node">
<title>S3</title>
<polygon fill="#fff8e1" stroke="#fbc02d" points="484,-524 340,-524 340,-488 484,-488 484,-524"/>
<text text-anchor="middle" x="412" y="-507.75" font-family="Helvetica,sans-Serif" font-size="10.00">CORDIS records</text>
<text text-anchor="middle" x="412" y="-496.5" font-family="Helvetica,sans-Serif" font-size="10.00">(n=…)</text>
</g>
<!-- S3&#45;&gt;D1 -->
<g id="edge3" class="edge">
<title>S3&#45;&gt;D1</title>
<path fill="none" stroke="#666666" d="M388.14,-487.62C380.62,-482.14 372.18,-476 364.15,-470.14"/>
<polygon fill="#666666" stroke="#666666" points="366.34,-467.41 356.2,-464.35 362.22,-473.07 366.34,-467.41"/>
</g>
<!-- S4 -->
<g id="node4" class="node">
<title>S4</title>
<polygon fill="#fff8e1" stroke="#fbc02d" points="646,-524 502,-524 502,-488 646,-488 646,-524"/>
<text text-anchor="middle" x="574" y="-507.75" font-family="Helvetica,sans-Serif" font-size="10.00">Project&#45;site records</text>
<text text-anchor="middle" x="574" y="-496.5" font-family="Helvetica,sans-Serif" font-size="10.00">(n=…)</text>
</g>
<!-- S4&#45;&gt;D1 -->
<g id="edge4" class="edge">
<title>S4&#45;&gt;D1</title>
<path fill="none" stroke="#666666" d="M520.17,-487.63C511.14,-484.93 501.83,-482.29 493,-480 467.55,-473.42 439.61,-467.2 414.2,-461.92"/>
<polygon fill="#666666" stroke="#666666" points="415.09,-458.53 404.59,-459.95 413.68,-465.39 415.09,-458.53"/>
</g>
<!-- X1 -->
<g id="node7" class="node">
<title>X1</title>
<polygon fill="#ffebee" stroke="#c62828" points="403,-402 259,-402 259,-366 403,-366 403,-402"/>
<text text-anchor="middle" x="331" y="-385.75" font-family="Helvetica,sans-Serif" font-size="10.00">Exclude: No autism terms</text>
<text text-anchor="middle" x="331" y="-374.5" font-family="Helvetica,sans-Serif" font-size="10.00">(n=…)</text>
</g>
<!-- D1&#45;&gt;X1 -->
<g id="edge5" class="edge">
<title>D1&#45;&gt;X1</title>
<path fill="none" stroke="#666666" d="M331,-426.62C331,-422.57 331,-418.16 331,-413.77"/>
<polygon fill="#666666" stroke="#666666" points="334.5,-413.98 331,-403.98 327.5,-413.98 334.5,-413.98"/>
</g>
<!-- D2 -->
<g id="node6" class="node">
<title>D2</title>
<polygon fill="#e8f5e9" stroke="#2e7d32" points="403,-36 259,-36 259,0 403,0 403,-36"/>
<text text-anchor="middle" x="331" y="-19.75" font-family="Helvetica,sans-Serif" font-size="10.00">Dataset 2: final corpus</text>
<text text-anchor="middle" x="331" y="-8.5" font-family="Helvetica,sans-Serif" font-size="10.00">(n=…)</text>
</g>
<!-- X2 -->
<g id="node8" class="node">
<title>X2</title>
<polygon fill="#ffebee" stroke="#c62828" points="403,-341 259,-341 259,-305 403,-305 403,-341"/>
<text text-anchor="middle" x="331" y="-324.75" font-family="Helvetica,sans-Serif" font-size="10.00">Exclude: Duplicate preprint</text>
<text text-anchor="middle" x="331" y="-313.5" font-family="Helvetica,sans-Serif" font-size="10.00">(n=…)</text>
</g>
<!-- X1&#45;&gt;X2 -->
<g id="edge6" class="edge">
<title>X1&#45;&gt;X2</title>
<path fill="none" stroke="#666666" d="M331,-365.62C331,-361.57 331,-357.16 331,-352.77"/>
<polygon fill="#666666" stroke="#666666" points="334.5,-352.98 331,-342.98 327.5,-352.98 334.5,-352.98"/>
</g>
<!-- X3 -->
<g id="node9" class="node">
<title>X3</title>
<polygon fill="#ffebee" stroke="#c62828" points="403,-280 259,-280 259,-244 403,-244 403,-280"/>
<text text-anchor="middle" x="331" y="-263.75" font-family="Helvetica,sans-Serif" font-size="10.00">Exclude: Not English</text>
<text text-anchor="middle" x="331" y="-252.5" font-family="Helvetica,sans-Serif" font-size="10.00">(n=…)</text>
</g>
<!-- X2&#45;&gt;X3 -->
<g id="edge7" class="edge">
<title>X2&#45;&gt;X3</title>
<path fill="none" stroke="#666666" d="M331,-304.62C331,-300.57 331,-296.16 331,-291.77"/>
<polygon fill="#666666" stroke="#666666" points="334.5,-291.98 331,-281.98 327.5,-291.98 334.5,-291.98"/>
</g>
<!-- X4 -->
<g id="node10" class="node">
<title>X4</title>
<polygon fill="#ffebee" stroke="#c62828" points="403,-219 259,-219 259,-183 403,-183 403,-219"/>
<text text-anchor="middle" x="331" y="-202.75" font-family="Helvetica,sans-Serif" font-size="10.00">Exclude: Not autism&#45;related</text>
<text text-anchor="middle" x="331" y="-191.5" font-family="Helvetica,sans-Serif" font-size="10.00">(n=…)</text>
</g>
<!-- X3&#45;&gt;X4 -->
<g id="edge8" class="edge">
<title>X3&#45;&gt;X4</title>
<path fill="none" stroke="#666666" d="M331,-243.62C331,-239.57 331,-235.16 331,-230.77"/>
<polygon fill="#666666" stroke="#666666" points="334.5,-230.98 331,-220.98 327.5,-230.98 334.5,-230.98"/>
</g>
<!-- X5 -->
<g id="node11" class="node">
<title>X5</title>
<polygon fill="#ffebee" stroke="#c62828" points="403.5,-158 258.5,-158 258.5,-122 403.5,-122 403.5,-158"/>
<text text-anchor="middle" x="331" y="-141.75" font-family="Helvetica,sans-Serif" font-size="10.00">Exclude: A2T only in text/refs</text>
<text text-anchor="middle" x="331" y="-130.5" font-family="Helvetica,sans-Serif" font-size="10.00">(n=…)</text>
</g>
<!-- X4&#45;&gt;X5 -->
<g id="edge9" class="edge">
<title>X4&#45;&gt;X5</title>
<path fill="none" stroke="#666666" d="M331,-182.62C331,-178.57 331,-174.16 331,-169.77"/>
<polygon fill="#666666" stroke="#666666" points="334.5,-169.98 331,-159.98 327.5,-169.98 334.5,-169.98"/>
</g>
<!-- XF1 -->
<g id="node12" class="node">
<title>XF1</title>
<polygon fill="#ffebee" stroke="#c62828" points="410.62,-97 251.38,-97 251.38,-61 410.62,-61 410.62,-97"/>
<text text-anchor="middle" x="331" y="-80.75" font-family="Helvetica,sans-Serif" font-size="10.00">Exclude: A2T funding not explicit</text>
<text text-anchor="middle" x="331" y="-69.5" font-family="Helvetica,sans-Serif" font-size="10.00">(n=…)</text>
</g>
<!-- X5&#45;&gt;XF1 -->
<g id="edge10" class="edge">
<title>X5&#45;&gt;XF1</title>
<path fill="none" stroke="#666666" d="M331,-121.62C331,-117.57 331,-113.16 331,-108.77"/>
<polygon fill="#666666" stroke="#666666" points="334.5,-108.98 331,-98.98 327.5,-108.98 334.5,-108.98"/>
</g>
<!-- XF1&#45;&gt;D2 -->
<g id="edge11" class="edge">
<title>XF1&#45;&gt;D2</title>
<path fill="none" stroke="#666666" d="M331,-60.62C331,-56.57 331,-52.16 331,-47.77"/>
<polygon fill="#666666" stroke="#666666" points="334.5,-47.98 331,-37.98 327.5,-47.98 334.5,-47.98"/>
</g>
</g>
</svg>
