<?xml version="1.0" encoding="UTF-8" standalone="no"?>
<!DOCTYPE svg PUBLIC "-//W3C//DTD SVG 1.1//EN"
 "http://www.w3.org/Graphics/SVG/1.1/DTD/svg11.dtd">
<!-- Generated by graphviz version 12.2.1 (20241206.2353)
 -->
<!-- Title: PRISMA2020 Pages: 1 -->
<svg width="864pt" height="565pt"
 viewBox="0.00 0.00 864.00 564.50" xmlns="http://www.w3.org/2000/svg" xmlns:xlink="http://www.w3.org/1999/xlink">
<g id="graph0" class="graph" transform="scale(1 1) rotate(0) translate(4 560.5)">
<title>PRISMA2020</title>
<polygon fill="white" stroke="none" points="-4,4 -4,-560.5 860,-560.5 860,4 -4,4"/>
<text text-anchor="middle" x="428" y="-537.3" font-family="Helvetica,sans-Serif" font-weight="bold" font-size="16.00">PRISMA Flow Diagram (Draft 0.6)</text>
<!-- R1 -->
<g id="node1" class="node">
<title>R1</title>
<polygon fill="#fff8e1" stroke="#fbc02d" points="554,-532 302,-532 302,-445.6 554,-445.6 554,-532"/>
<text text-anchor="start" x="310" y="-507.42" font-family="Helvetica,sans-Serif" font-size="10.00">Records identified from:</text>
<text text-anchor="start" x="310" y="-496.17" font-family="Helvetica,sans-Serif" font-size="10.00">&#45; Dimensions (n = …)</text>
<text text-anchor="start" x="310" y="-484.92" font-family="Helvetica,sans-Serif" font-size="10.00">&#45; Europe PMC (n = …)</text>
<text text-anchor="start" x="310" y="-473.67" font-family="Helvetica,sans-Serif" font-size="10.00">&#45; Aims&#45;2&#45;Trials Website (n = …)</text>
<text text-anchor="start" x="310" y="-462.42" font-family="Helvetica,sans-Serif" font-size="10.00">&#45; Cordis Website (n = …)</text>
</g>
<!-- R2 -->
<g id="node2" class="node">
<title>R2</title>
<polygon fill="#e8f5e9" stroke="#2e7d32" points="554,-420.6 302,-420.6 302,-334.2 554,-334.2 554,-420.6"/>
<text text-anchor="middle" x="428" y="-379.15" font-family="Helvetica,sans-Serif" font-size="10.00" fill="#1b5e20">Records after duplicates removed</text>
<text text-anchor="middle" x="428" y="-367.9" font-family="Helvetica,sans-Serif" font-size="10.00" fill="#1b5e20">(n = …)</text>
</g>
<!-- R1&#45;&gt;R2 -->
<g id="edge1" class="edge">
<title>R1&#45;&gt;R2</title>
<path fill="none" stroke="#666666" d="M428,-445.19C428,-440.98 428,-436.68 428,-432.37"/>
<polygon fill="#666666" stroke="#666666" points="431.5,-432.59 428,-422.59 424.5,-432.59 431.5,-432.59"/>
</g>
<!-- X1 -->
<g id="node6" class="node">
<title>X1</title>
<polygon fill="#ffebee" stroke="#c62828" points="856,-532 604,-532 604,-445.6 856,-445.6 856,-532"/>
<text text-anchor="start" x="612" y="-484.92" font-family="Helvetica,sans-Serif" font-size="10.00" fill="#b71c1c">Duplicates removed (n = …)</text>
</g>
<!-- R1&#45;&gt;X1 -->
<g id="edge5" class="edge">
<title>R1:e&#45;&gt;X1:w</title>
<path fill="none" stroke="#666666" d="M554,-488.8C571.88,-488.8 578.97,-488.8 592.64,-488.8"/>
<polygon fill="#666666" stroke="#666666" points="592.49,-492.3 602.49,-488.8 592.49,-485.3 592.49,-492.3"/>
</g>
<!-- R3 -->
<g id="node3" class="node">
<title>R3</title>
<polygon fill="#e8f5e9" stroke="#2e7d32" points="554,-309.2 302,-309.2 302,-222.8 554,-222.8 554,-309.2"/>
<text text-anchor="middle" x="428" y="-267.75" font-family="Helvetica,sans-Serif" font-size="10.00" fill="#1b5e20">Full‑text reports assessed for eligibility</text>
<text text-anchor="middle" x="428" y="-256.5" font-family="Helvetica,sans-Serif" font-size="10.00" fill="#1b5e20">(n = …)</text>
</g>
<!-- R2&#45;&gt;R3 -->
<g id="edge2" class="edge">
<title>R2&#45;&gt;R3</title>
<path fill="none" stroke="#666666" d="M428,-333.79C428,-329.58 428,-325.28 428,-320.97"/>
<polygon fill="#666666" stroke="#666666" points="431.5,-321.19 428,-311.19 424.5,-321.19 431.5,-321.19"/>
</g>
<!-- X2 -->
<g id="node7" class="node">
<title>X2</title>
<polygon fill="#ffebee" stroke="#c62828" points="856,-420.6 604,-420.6 604,-334.2 856,-334.2 856,-420.6"/>
<text text-anchor="start" x="612" y="-379.15" font-family="Helvetica,sans-Serif" font-size="10.00" fill="#b71c1c">Excluded:</text>
<text text-anchor="start" x="612" y="-367.9" font-family="Helvetica,sans-Serif" font-size="10.00" fill="#b71c1c">&#45; No autism terms in title/abstract (n = …)</text>
</g>
<!-- R2&#45;&gt;X2 -->
<g id="edge6" class="edge">
<title>R2:e&#45;&gt;X2:w</title>
<path fill="none" stroke="#666666" d="M554,-377.4C571.88,-377.4 578.97,-377.4 592.64,-377.4"/>
<polygon fill="#666666" stroke="#666666" points="592.49,-380.9 602.49,-377.4 592.49,-373.9 592.49,-380.9"/>
</g>
<!-- R4 -->
<g id="node4" class="node">
<title>R4</title>
<polygon fill="#e8f5e9" stroke="#2e7d32" points="554,-197.8 302,-197.8 302,-111.4 554,-111.4 554,-197.8"/>
<text text-anchor="middle" x="428" y="-156.35" font-family="Helvetica,sans-Serif" font-size="10.00" fill="#1b5e20">Reports reviewed for support attribution</text>
<text text-anchor="middle" x="428" y="-145.1" font-family="Helvetica,sans-Serif" font-size="10.00" fill="#1b5e20">(n = …)</text>
</g>
<!-- R3&#45;&gt;R4 -->
<g id="edge3" class="edge">
<title>R3&#45;&gt;R4</title>
<path fill="none" stroke="#666666" d="M428,-222.39C428,-218.18 428,-213.88 428,-209.57"/>
<polygon fill="#666666" stroke="#666666" points="431.5,-209.79 428,-199.79 424.5,-209.79 431.5,-209.79"/>
</g>
<!-- X3 -->
<g id="node8" class="node">
<title>X3</title>
<polygon fill="#ffebee" stroke="#c62828" points="856,-309.2 604,-309.2 604,-222.8 856,-222.8 856,-309.2"/>
<text text-anchor="start" x="612" y="-290.25" font-family="Helvetica,sans-Serif" font-size="10.00" fill="#b71c1c">Excluded:</text>
<text text-anchor="start" x="612" y="-279" font-family="Helvetica,sans-Serif" font-size="10.00" fill="#b71c1c">&#45; Duplicate preprint/published (n = …)</text>
<text text-anchor="start" x="612" y="-267.75" font-family="Helvetica,sans-Serif" font-size="10.00" fill="#b71c1c">&#45; Not autism&#45;related (n = …)</text>
<text text-anchor="start" x="612" y="-256.5" font-family="Helvetica,sans-Serif" font-size="10.00" fill="#b71c1c">&#45; Full text unavailable (n = …)</text>
<text text-anchor="start" x="612" y="-245.25" font-family="Helvetica,sans-Serif" font-size="10.00" fill="#b71c1c">&#45; Research summary only (n = …)</text>
<text text-anchor="start" x="612" y="-234" font-family="Helvetica,sans-Serif" font-size="10.00" fill="#b71c1c">&#45; Non&#45;research article (n = …)</text>
</g>
<!-- R3&#45;&gt;X3 -->
<g id="edge7" class="edge">
<title>R3:e&#45;&gt;X3:w</title>
<path fill="none" stroke="#666666" d="M554,-266C571.88,-266 578.97,-266 592.64,-266"/>
<polygon fill="#666666" stroke="#666666" points="592.49,-269.5 602.49,-266 592.49,-262.5 592.49,-269.5"/>
</g>
<!-- R5 -->
<g id="node5" class="node">
<title>R5</title>
<polygon fill="#e8f5e9" stroke="#2e7d32" points="554,-86.4 302,-86.4 302,0 554,0 554,-86.4"/>
<text text-anchor="middle" x="428" y="-44.95" font-family="Helvetica,sans-Serif" font-size="10.00" fill="#1b5e20">Articles included in review</text>
<text text-anchor="middle" x="428" y="-33.7" font-family="Helvetica,sans-Serif" font-size="10.00" fill="#1b5e20">(n = …)</text>
</g>
<!-- R4&#45;&gt;R5 -->
<g id="edge4" class="edge">
<title>R4&#45;&gt;R5</title>
<path fill="none" stroke="#666666" d="M428,-110.99C428,-106.78 428,-102.48 428,-98.17"/>
<polygon fill="#666666" stroke="#666666" points="431.5,-98.39 428,-88.39 424.5,-98.39 431.5,-98.39"/>
</g>
<!-- X4 -->
<g id="node9" class="node">
<title>X4</title>
<polygon fill="#ffebee" stroke="#c62828" points="856,-197.8 604,-197.8 604,-111.4 856,-111.4 856,-197.8"/>
<text text-anchor="start" x="612" y="-173.22" font-family="Helvetica,sans-Serif" font-size="10.00" fill="#b71c1c">Excluded:</text>
<text text-anchor="start" x="612" y="-161.97" font-family="Helvetica,sans-Serif" font-size="10.00" fill="#b71c1c">&#45; Aims&#45;2&#45;Trials not mentioned (n = …)</text>
<text text-anchor="start" x="612" y="-150.72" font-family="Helvetica,sans-Serif" font-size="10.00" fill="#b71c1c">&#45; Aims&#45;2&#45;Trials mentioned only in text/refs (n = …)</text>
<text text-anchor="start" x="612" y="-139.47" font-family="Helvetica,sans-Serif" font-size="10.00" fill="#b71c1c">&#45; Aims&#45;2&#45;Trials mentioned only in COI (n = …)</text>
<text text-anchor="start" x="612" y="-128.22" font-family="Helvetica,sans-Serif" font-size="10.00" fill="#b71c1c">&#45; Aims&#45;2&#45;Trials support unclear (n = …)</text>
</g>
<!-- R4&#45;&gt;X4 -->
<g id="edge8" class="edge">
<title>R4:e&#45;&gt;X4:w</title>
<path fill="none" stroke="#666666" d="M554,-154.6C571.88,-154.6 578.97,-154.6 592.64,-154.6"/>
<polygon fill="#666666" stroke="#666666" points="592.49,-158.1 602.49,-154.6 592.49,-151.1 592.49,-158.1"/>
</g>
<!-- L1 -->
<g id="node10" class="node">
<title>L1</title>
<path fill="#bbdefb" stroke="none" d="M240,-532C240,-532 12,-532 12,-532 6,-532 0,-526 0,-520 0,-520 0,-457.6 0,-457.6 0,-451.6 6,-445.6 12,-445.6 12,-445.6 240,-445.6 240,-445.6 246,-445.6 252,-451.6 252,-457.6 252,-457.6 252,-520 252,-520 252,-526 246,-532 240,-532"/>
<text text-anchor="middle" x="126" y="-483.77" font-family="Helvetica,sans-Serif" font-size="12.00" fill="#0d47a1">Identification</text>
</g>
<!-- L1&#45;&gt;R1 -->
<!-- L2 -->
<g id="node11" class="node">
<title>L2</title>
<path fill="#bbdefb" stroke="none" d="M240,-420.6C240,-420.6 12,-420.6 12,-420.6 6,-420.6 0,-414.6 0,-408.6 0,-408.6 0,-346.2 0,-346.2 0,-340.2 6,-334.2 12,-334.2 12,-334.2 240,-334.2 240,-334.2 246,-334.2 252,-340.2 252,-346.2 252,-346.2 252,-408.6 252,-408.6 252,-414.6 246,-420.6 240,-420.6"/>
<text text-anchor="middle" x="126" y="-372.38" font-family="Helvetica,sans-Serif" font-size="12.00" fill="#0d47a1">Screening</text>
</g>
<!-- L2&#45;&gt;R2 -->
<!-- L3 -->
<g id="node12" class="node">
<title>L3</title>
<path fill="#bbdefb" stroke="none" d="M240,-197.8C240,-197.8 12,-197.8 12,-197.8 6,-197.8 0,-191.8 0,-185.8 0,-185.8 0,-123.4 0,-123.4 0,-117.4 6,-111.4 12,-111.4 12,-111.4 240,-111.4 240,-111.4 246,-111.4 252,-117.4 252,-123.4 252,-123.4 252,-185.8 252,-185.8 252,-191.8 246,-197.8 240,-197.8"/>
<text text-anchor="middle" x="126" y="-149.57" font-family="Helvetica,sans-Serif" font-size="12.00" fill="#0d47a1">Eligibility</text>
</g>
<!-- L3&#45;&gt;R4 -->
<!-- L4 -->
<g id="node13" class="node">
<title>L4</title>
<path fill="#bbdefb" stroke="none" d="M240,-86.4C240,-86.4 12,-86.4 12,-86.4 6,-86.4 0,-80.4 0,-74.4 0,-74.4 0,-12 0,-12 0,-6 6,0 12,0 12,0 240,0 240,0 246,0 252,-6 252,-12 252,-12 252,-74.4 252,-74.4 252,-80.4 246,-86.4 240,-86.4"/>
<text text-anchor="middle" x="126" y="-38.17" font-family="Helvetica,sans-Serif" font-size="12.00" fill="#0d47a1">Included</text>
</g>
<!-- L4&#45;&gt;R5 -->
</g>
</svg>
